<svg width="342" height="247" viewBox="0 0 342 247" fill="none" xmlns="http://www.w3.org/2000/svg">
<path d="M108.5 35V57V77.25M108.5 35H129.75M108.5 35H86.5M2 35V56M2 35V1.5H23.5M2 35H45M2 56H45V77M2 56V139.5M66.5 97H45V77M45 77H66.5M2 139.5H23.5V77M2 139.5V182M2 182H45V203.25M2 182V245H23.5M22 161H45H66.5H129.75M45 224.5V203.25M23.5 245V202.5M23.5 245H66.5M66.5 245V224.5M66.5 245H129M129 245V224.5M129 245H170.5V202.5M45 203.25H86.5M86.5 203.25V224.5H108.5M86.5 203.25V181H107M66.5 181V160.75V139.5M108.5 160.75V139.125V117.5M129.75 139.125V118.812V98.5M129.75 98.5H86.5M129.75 98.5H151V56M235 98.5H213M213 98.5V139.125M213 98.5V77H192V56H151M86.5 98.5V119M86.5 98.5V77.25V56H64M86.5 139.5V119M86.5 119H45V139.5M129.75 77.25H108.5M129 56H151M297.5 35V56M297.5 35V18M297.5 35H255.5M297.5 56H320M297.5 56V76H277.5V98.5H297.5V119H320M213 35V56H235V77.25M213 35H255.5M213 35V18M213 35H170.5M277.5 56H255.5V77.25V119M255.5 119H277.5V139.125H320V161H255.5V139.5M255.5 119H235V161M277.5 203.25H255.5V181H235V161M235 161H192M129.75 161H170.5H192M129.75 161V202.5M129.75 202.5H107M129.75 202.5H151M151 202.5V224.5M151 202.5V182H213V224.5H235M235 224.5V203.25M235 224.5H255.5V245M255.5 245H192V203.25M255.5 245H277.5M277.5 245V224.5M277.5 245H320M320 245V203.25M320 245H340M340 246.5V245M340 182H297.5M340 182V97M340 182V245M297.5 182V224.5M297.5 182H277.5M340 97V77.25V35H320V18V1.5H277.5M340 97H320V77.25M108.125 77.25H108.5M170.5 77V98.5H192V117.5V161M277.5 18V1.5M277.5 1.5H235M255.5 18V35M235 18V1.5M235 1.5H192M192 18V1.5M192 1.5H151M170.5 18V35M170.5 35H151H129.75M151 18V1.5M151 1.5H108.5M129.75 18V35M108.5 18V1.5M108.5 1.5H64M86.5 18V35M86.5 35H45M64 18V1.5M64 1.5H23.5M45 18V35M23.5 18V1.5" stroke="black" stroke-width="3"/>
</svg>
